<?xml version="1.0" encoding="utf-8" ?>
<svg baseProfile="full" height="100%" version="1.1" viewBox="-600 -400 1750 1200" width="100%" xmlns="http://www.w3.org/2000/svg" xmlns:ev="http://www.w3.org/2001/xml-events" xmlns:xlink="http://www.w3.org/1999/xlink"><defs><pattern height="8" id="diagonalHatch" patternTransform="rotate(45 2 2)" patternUnits="userSpaceOnUse" width="8"><path d="M 0,1 l 8,0" stroke="#000000" stroke-width="2.5" /></pattern><marker id="id6" markerHeight="20" markerWidth="30" orient="auto" refX="0" refY="3"><path d=" M0,3 L8,8 L5,3 L8,0 L0,3" fill="black" /></marker><marker id="id7" markerHeight="10" markerWidth="10" orient="auto" refX="0" refY="5"><path d="M 0 0 L 10 5 L 0 10 z" fill="blue" stroke="black" /></marker><marker id="id8" markerHeight="10" markerWidth="10" orient="auto" refX="0" refY="5"><path d="M 0 0 L 10 5 L 0 10 z" fill="blue" stroke="black" /></marker><marker id="id9" markerHeight="30" markerWidth="30" orient="auto" refX="8" refY="3"><path d=" M0,0 L3,3 L0,8 L8,3 L0,0" fill="black" /></marker><marker id="id10" markerHeight="20" markerWidth="30" orient="auto" refX="0" refY="3"><path d=" M0,3 L8,8 L5,3 L8,0 L0,3" fill="black" /></marker></defs><polyline fill="none" points="0.0,0.0 750.0,0.0 750.0,400.0 0.0,400.0 0.0,0.0" stroke="blue" stroke-width="2.5" /><line stroke="blue" stroke-linecap="square" stroke-width="2.5" x1="0.0" x2="750.0" y1="14.0" y2="14.0" /><line stroke="blue" stroke-linecap="square" stroke-width="2.5" x1="0.0" x2="750.0" y1="386.0" y2="386.0" /><line stroke="blue" stroke-linecap="square" stroke-width="2.5" x1="116.0" x2="116.0" y1="-25.0" y2="0.0" /><line stroke="red" stroke-dasharray="5 5" stroke-linecap="square" stroke-width="2.5" x1="116.0" x2="116.0" y1="400.0" y2="0.0" /><line stroke="blue" stroke-linecap="square" stroke-width="2.5" x1="116.0" x2="116.0" y1="400.0" y2="425.0" /><line stroke="blue" stroke-linecap="square" stroke-width="2.5" x1="116.0" x2="200.0" y1="425.0" y2="425.0" /><line stroke="blue" stroke-linecap="square" stroke-width="2.5" x1="200.0" x2="200.0" y1="-25.0" y2="425.0" /><line stroke="blue" stroke-linecap="square" stroke-width="2.5" x1="200.0" x2="116.0" y1="-25.0" y2="-25.0" /><polyline fill="none" marker-start="url(#id6)" points="0.0,0.0 -173.20508075688775,-100.0 -257.20508075688775,-100.0" stroke="black" stroke-width="2.5" /><text fill="black" font-family="sans-serif" font-size="28" x="-253.00508075688776" y="-118.0">LC 400</text><text fill="black" font-family="sans-serif" font-size="28" x="-261.40508075688774" y="-67.0"> </text><line marker-end="url(#id7)" stroke="black" stroke-linecap="square" stroke-width="2.5" x1="-200.0" x2="-200.0" y1="-300.0" y2="-250.0" /><text fill="black" font-family="sans-serif" font-size="40" x="-220.0" y="-175.0">A</text><line marker-end="url(#id8)" stroke="black" stroke-linecap="square" stroke-width="2.5" x1="950.0" x2="950.0" y1="-300.0" y2="-250.0" /><text fill="black" font-family="sans-serif" font-size="40" x="930.0" y="-175.0">A</text><line stroke="black" stroke-linecap="square" stroke-width="1.5" x1="-200.0" x2="950.0" y1="-300.0" y2="-300.0" /><line stroke="#D8D8D8" stroke-linecap="square" stroke-opacity="0.7" stroke-width="2.5" x1="0.0" x2="0.0" y1="400.0" y2="500.0" /><line stroke="#D8D8D8" stroke-linecap="square" stroke-opacity="0.7" stroke-width="2.5" x1="750.0" x2="750.0" y1="400.0" y2="500.0" /><line marker-end="url(#id9)" marker-start="url(#id10)" stroke="black" stroke-linecap="square" stroke-width="2.5" x1="750.0" x2="0.0" y1="500.0" y2="500.0" /><text fill="black" font-family="sans-serif" font-size="28" x="319.0" y="439.0">10000.0</text><line stroke="black" stroke-linecap="square" stroke-opacity="1.0" stroke-width="2.5" x1="750.0" x2="750.0" y1="490.0" y2="510.0" /><line stroke="black" stroke-linecap="square" stroke-opacity="1.0" stroke-width="2.5" x1="0.0" x2="0.0" y1="490.0" y2="510.0" /><text fill="black" font-family="sans-serif" font-size="35" x="75.0" y="650.0">Front view (Sec C-C) </text><text fill="black" font-family="sans-serif" font-size="35" x="75.0" y="690.0">(All dimensions are in "mm")</text></svg>